<svg
    class="asa-icon"
    viewBox="0 0 1024 1024"
    xmlns="http://www.w3.org/2000/svg"
    width="16"
    height="16"
>
    <path
        d="M512 192c320 0 448 256 448 320s-128 320-448 320S64 576 64 512s128-320 448-320z m0 48c-69.0608 0-130.8896 12.9088-185.72 36.9584-47.664 20.904-89.2784 49.9216-124.3392 84.9824-29.6944 29.696-53.6464 62.7712-70.2704 95.04-6.96 13.5104-12.2944 26.2768-15.7536 37.2864-1.488 4.7312-2.5664 8.952-3.232 12.48-0.488 2.592-0.6848 4.44-0.6848 5.2528s0.1968 2.6608 0.6864 5.2528c0.664 3.528 1.744 7.7488 3.2304 12.48 3.4592 11.0096 8.7952 23.776 15.7536 37.2848 16.624 32.2704 40.576 65.3472 70.272 95.04 35.0592 35.0624 76.672 64.08 124.336 84.984C381.112 771.0896 442.9408 784 512 784s130.8896-12.9088 185.72-36.9584c47.664-20.904 89.2784-49.9216 124.3392-84.9824 29.6944-29.696 53.6464-62.7712 70.2704-95.04 6.96-13.5104 12.2944-26.2768 15.7536-37.2864 1.488-4.7312 2.5664-8.952 3.232-12.48 0.488-2.592 0.6848-4.44 0.6848-5.2528s-0.1968-2.6608-0.6864-5.2528c-0.664-3.528-1.744-7.7488-3.2304-12.48-3.4592-11.0096-8.7952-23.776-15.7536-37.2848-16.624-32.2704-40.576-65.3472-70.272-95.04-35.0592-35.0624-76.672-64.08-124.336-84.984C642.888 252.9104 581.0592 240 512 240z m0 112c88.3648 0 160 71.6352 160 160s-71.6352 160-160 160-160-71.6352-160-160 71.6352-160 160-160z m0 48c-61.856 0-112 50.144-112 112s50.144 112 112 112 112-50.144 112-112-50.144-112-112-112z"
        fill="currentColor"
    ></path>
</svg>